<svg width="281" height="264" viewBox="0 0 281 264" fill="none" xmlns="http://www.w3.org/2000/svg">
<mask id="path-1-outside-1_39_2" maskUnits="userSpaceOnUse" x="-1" y="0" width="282" height="264" fill="black">
<rect fill="white" x="-1" width="282" height="264"/>
<path fill-rule="evenodd" clip-rule="evenodd" d="M265.566 228.737C238.789 271.986 161.28 274.479 91.0987 233.959C20.0673 192.949 -16.5603 123.409 9.28872 78.6376C11.1064 75.4892 13.1847 72.5472 15.5025 69.8123C42.4716 31.2941 82.0273 31.2553 117.319 31.2207C149.487 31.1891 178.112 31.161 190.433 2C198.526 3.47136 202.388 14.8744 203.308 20.392C205.147 10.2764 220.78 3.8392 229.976 6.598C226.604 9.05027 220.412 16.5297 222.619 26.8292C226.911 23.7639 236.965 19.4724 242.851 26.8292C220.936 45.6679 236.01 75.466 252.979 109.009C272.514 147.625 294.56 191.204 265.566 228.737Z"/>
</mask>
<path fill-rule="evenodd" clip-rule="evenodd" d="M265.566 228.737C238.789 271.986 161.28 274.479 91.0987 233.959C20.0673 192.949 -16.5603 123.409 9.28872 78.6376C11.1064 75.4892 13.1847 72.5472 15.5025 69.8123C42.4716 31.2941 82.0273 31.2553 117.319 31.2207C149.487 31.1891 178.112 31.161 190.433 2C198.526 3.47136 202.388 14.8744 203.308 20.392C205.147 10.2764 220.78 3.8392 229.976 6.598C226.604 9.05027 220.412 16.5297 222.619 26.8292C226.911 23.7639 236.965 19.4724 242.851 26.8292C220.936 45.6679 236.01 75.466 252.979 109.009C272.514 147.625 294.56 191.204 265.566 228.737Z" fill="#5D9A88"/>
<path d="M265.566 228.737L264.775 228.126L264.743 228.167L264.716 228.211L265.566 228.737ZM91.0987 233.959L91.5987 233.093L91.0987 233.959ZM9.28872 78.6376L8.4227 78.1376H8.42269L9.28872 78.6376ZM15.5025 69.8123L16.2654 70.4588L16.2952 70.4236L16.3217 70.3858L15.5025 69.8123ZM117.319 31.2207L117.318 30.2207L117.319 31.2207ZM190.433 2L190.612 1.01613L189.824 0.872818L189.512 1.61078L190.433 2ZM203.308 20.392L202.321 20.5564L204.292 20.5709L203.308 20.392ZM229.976 6.598L230.564 7.40674L232.196 6.21997L230.264 5.64018L229.976 6.598ZM222.619 26.8292L221.642 27.0387L221.961 28.5285L223.201 27.643L222.619 26.8292ZM242.851 26.8292L243.503 27.5875L244.234 26.9583L243.631 26.2045L242.851 26.8292ZM252.979 109.009L253.871 108.557L252.979 109.009ZM264.716 228.211C251.566 249.449 225.879 260.804 194.578 261.762C163.294 262.72 126.553 253.274 91.5987 233.093L90.5987 234.825C125.826 255.164 162.93 264.732 194.64 263.761C226.333 262.791 252.789 251.274 266.416 229.263L264.716 228.211ZM91.5987 233.093C56.2207 212.668 29.4522 185.159 14.7483 157.243C0.0372935 129.313 -2.53721 101.121 10.1547 79.1376L8.42269 78.1376C-4.73436 100.926 -1.91957 129.89 12.9788 158.175C27.8843 186.474 54.9453 214.241 90.5987 234.825L91.5987 233.093ZM10.1547 79.1376C11.9422 76.0417 13.9858 73.1486 16.2654 70.4588L14.7397 69.1657C12.3836 71.9458 10.2707 74.9368 8.4227 78.1376L10.1547 79.1376ZM16.3217 70.3858C42.9587 32.3419 81.9697 32.2554 117.32 32.2207L117.318 30.2207C82.0849 30.2553 41.9845 30.2464 14.6834 69.2387L16.3217 70.3858ZM117.32 32.2207C133.363 32.2049 148.715 32.1977 161.595 28.495C174.558 24.7681 185.059 17.2877 191.355 2.38922L189.512 1.61078C183.486 15.8733 173.514 22.9875 161.042 26.5728C148.487 30.1823 133.443 30.2049 117.318 30.2207L117.32 32.2207ZM190.254 2.98387C193.864 3.64011 196.651 6.54133 198.689 10.1684C200.712 13.7706 201.876 17.8851 202.321 20.5564L204.294 20.2276C203.82 17.3813 202.593 13.0355 200.432 9.18892C198.286 5.36724 195.095 1.83125 190.612 1.01613L190.254 2.98387ZM204.292 20.5709C205.129 15.9654 209.163 12.033 214.315 9.56924C219.455 7.11068 225.4 6.26918 229.689 7.55583L230.264 5.64018C225.356 4.16803 218.887 5.16573 213.452 7.76497C208.028 10.359 203.326 14.703 202.324 20.2131L204.292 20.5709ZM229.388 5.78927C225.819 8.38492 219.324 16.2235 221.642 27.0387L223.597 26.6197C221.501 16.8359 227.39 9.71562 230.564 7.40674L229.388 5.78927ZM223.201 27.643C225.255 26.1757 228.692 24.419 232.278 23.911C235.826 23.4083 239.411 24.13 242.07 27.4539L243.631 26.2045C240.405 22.1716 236.02 21.3607 231.997 21.9308C228.011 22.4957 224.275 24.4174 222.038 26.0155L223.201 27.643ZM242.199 26.0709C236.566 30.913 233.282 36.4904 231.828 42.6714C230.379 48.8333 230.762 55.5347 232.358 62.6245C235.542 76.769 243.621 92.7265 252.086 109.46L253.871 108.557C245.368 91.7479 237.426 76.0351 234.309 62.1853C232.755 55.278 232.418 48.9012 233.775 43.1293C235.128 37.3766 238.178 32.1647 243.503 27.5875L242.199 26.0709ZM252.086 109.46C261.868 128.795 272.195 149.224 276.492 169.487C280.778 189.696 279.046 209.652 264.775 228.126L266.357 229.348C281.08 210.29 282.821 189.689 278.449 169.072C274.088 148.507 263.625 127.838 253.871 108.557L252.086 109.46Z" fill="black" fill-opacity="0.25" mask="url(#path-1-outside-1_39_2)"/>
<path d="M192.277 210.749C212.876 211.485 226.609 198.181 230.9 191.438" stroke="black" stroke-opacity="0.25"/>
<path fill-rule="evenodd" clip-rule="evenodd" d="M226.443 10.1545C223.621 13.8461 221.082 19.6531 222.619 26.8292C224.488 25.4948 227.448 23.928 230.681 23.191C238.841 64.0419 202.199 107.469 147.354 121.122C91.3064 135.074 37.4731 112.648 27.1139 71.0333C26.0289 66.6748 25.4639 62.2786 25.3861 57.8845C51.6057 31.2852 86.1277 31.2513 117.319 31.2207C149.487 31.1891 178.112 31.161 190.433 2C198.526 3.47136 202.388 14.8744 203.308 20.392C204.805 12.1549 215.45 6.35693 224.317 5.97711C225.079 7.3403 225.789 8.73305 226.443 10.1545Z" fill="#85C0A7"/>
<path fill-rule="evenodd" clip-rule="evenodd" d="M32.5081 51.4491C50.7821 36.7995 72.2477 32.7739 93.5256 31.657C94.1041 32.3991 94.5208 33.213 94.7573 34.0958C96.812 41.7638 84.4979 51.7258 67.253 56.3466C50.4819 60.8404 35.2237 58.6274 32.5081 51.4491Z" fill="#D9D9D9" fill-opacity="0.29"/>
<ellipse cx="120.721" cy="64.2577" rx="34.1563" ry="15.316" transform="rotate(-15 120.721 64.2577)" fill="#A1D0BC"/>
<path d="M83.7641 97.6385C78.2465 51.6585 129.744 51.6585 147.217 47.9801M223.543 24.0704C222.624 41.5428 210.669 50.7389 217.106 84.7641C223.543 118.789 247.453 132.583 237.337 176.724" stroke="black" stroke-opacity="0.25"/>
<path d="M168.433 42.8863C168.159 42.8503 167.908 43.043 167.872 43.3168C167.836 43.5906 168.028 43.8417 168.302 43.8778L168.433 42.8863ZM202.812 15.794C202.812 23.3661 197.152 30.5157 189.92 35.6166C186.317 38.1573 182.356 40.1657 178.581 41.4428C174.799 42.7224 171.241 43.2558 168.433 42.8863L168.302 43.8778C171.318 44.2746 175.04 43.6968 178.902 42.39C182.771 41.0808 186.818 39.0276 190.496 36.4338C197.824 31.2658 203.812 23.8551 203.812 15.794H202.812Z" fill="black" fill-opacity="0.25"/>
<ellipse cx="72.549" cy="175.506" rx="22" ry="50" fill="#D9D9D9"/>
<ellipse cx="106.549" cy="178.506" rx="22" ry="50" fill="#0C1820" fill-opacity="0.12"/>
<ellipse cx="104.549" cy="178.506" rx="20" ry="50" fill="#D9D9D9"/>
<ellipse cx="8.5" cy="21" rx="8.5" ry="21" transform="matrix(-1 0 0 1 106.549 155.506)" fill="#0C1820"/>
<ellipse cx="8.5" cy="21" rx="8.5" ry="21" transform="matrix(-1 0 0 1 74.549 154.506)" fill="#0D1921"/>
<path d="M228.612 230.193C209.707 259.18 167.488 254.769 151.425 240.679C151.425 240.679 165.549 246.617 190.549 243.006C215.549 239.395 228.612 230.193 228.612 230.193Z" fill="white" fill-opacity="0.38"/>
</svg>
